<svg width="18" height="18" viewBox="0 0 18 18" fill="none" xmlns="http://www.w3.org/2000/svg">
<path d="M6.67322 4.61334V5.97459V7.39716V11.401C6.3166 11.1825 5.89866 11.0543 5.44978 11.0543C4.15266 11.0543 3.1005 12.1061 3.1005 13.4024C3.1005 14.7001 4.15238 15.752 5.44978 15.752C6.74635 15.752 7.79794 14.7004 7.79822 13.403V7.07372L13.7748 5.35556V9.37406C13.4182 9.15553 13.0002 9.02728 12.5513 9.02728C11.2537 9.02728 10.2021 10.0789 10.2021 11.3752C10.2021 12.6726 11.2537 13.7247 12.5513 13.7247C13.7731 13.7247 14.7772 12.7896 14.8885 11.5957H14.8998V5.03213V4.02356V2.24803L6.67322 4.61334Z" fill="#D9D9D9"/>
</svg>
