<svg width="23" height="23" viewBox="0 0 23 23" fill="none" xmlns="http://www.w3.org/2000/svg">
<g clip-path="url(#clip0_11_32)">
<path d="M6.31515 12.3674L10.1989 8.07627C10.2247 8.04903 10.2557 8.02733 10.2902 8.0125C10.3247 7.99767 10.3618 7.99002 10.3993 7.99002C10.4368 7.99002 10.4739 7.99767 10.5084 8.0125C10.5429 8.02733 10.5739 8.04903 10.5997 8.07627L12.9063 10.3434C12.9503 10.3853 13.0063 10.4123 13.0664 10.4205C13.1266 10.4288 13.1878 10.4179 13.2414 10.3894L16.3234 8.68084C16.3814 8.65265 16.4473 8.64514 16.5102 8.65956C16.573 8.67397 16.629 8.70945 16.6689 8.7601C16.7088 8.81075 16.7302 8.87352 16.7295 8.938C16.7288 9.00247 16.7061 9.06477 16.6651 9.11456L12.7551 13.4057C12.7289 13.4321 12.6977 13.4531 12.6633 13.4674C12.6289 13.4817 12.592 13.4891 12.5547 13.4891C12.5175 13.4891 12.4806 13.4817 12.4462 13.4674C12.4118 13.4531 12.3806 13.4321 12.3543 13.4057L10.0411 11.1188C9.99877 11.0766 9.94381 11.0493 9.88455 11.041C9.82528 11.0327 9.76493 11.0439 9.71258 11.0728L6.65686 12.7814C6.60115 12.8087 6.53789 12.8164 6.47727 12.8032C6.41666 12.7901 6.36222 12.757 6.32274 12.7092C6.28326 12.6613 6.26104 12.6016 6.25967 12.5396C6.25829 12.4776 6.27783 12.417 6.31515 12.3674Z" fill="white"/>
<path d="M5.29001 22.3428C4.89666 22.3411 4.51991 22.1841 4.24176 21.906C3.96362 21.6278 3.80659 21.2511 3.80486 20.8577V17.7428C2.81299 16.8095 2.02218 15.6835 1.48092 14.4337C0.93965 13.1839 0.659334 11.8368 0.65715 10.4748C0.65715 4.79056 5.53315 0.164276 11.5 0.164276C17.4669 0.164276 22.3429 4.79056 22.3429 10.4748C22.3429 16.1591 17.4669 20.7854 11.5 20.7854C10.6144 20.7843 9.73213 20.6784 8.87144 20.47L6.04572 22.126C5.81814 22.2655 5.55691 22.3404 5.29001 22.3428ZM11.5 1.80713C6.44001 1.80713 2.30001 5.69742 2.30001 10.4748C2.30321 11.6209 2.54165 12.754 3.00058 13.8041C3.45951 14.8542 4.12914 15.7989 4.96801 16.5797C5.11357 16.7175 5.22946 16.8836 5.30856 17.0678C5.38766 17.252 5.42831 17.4504 5.42801 17.6508V20.5751L8.05658 19.0243C8.22594 18.9205 8.41472 18.8524 8.61134 18.8241C8.80796 18.7959 9.00827 18.8081 9.20001 18.86C9.95703 19.0461 10.7336 19.1409 11.5132 19.1426C16.5731 19.1426 20.7132 15.2523 20.7132 10.4748C20.7132 5.69742 16.56 1.80713 11.5 1.80713Z" fill="white"/>
</g>
<defs>
<clipPath id="clip0_11_32">
<rect width="23" height="23" fill="white"/>
</clipPath>
</defs>
</svg>
