<svg width="12" height="12" viewBox="0 0 12 12" fill="none" xmlns="http://www.w3.org/2000/svg">
<path d="M8.12461 7.13204C7.54113 6.61337 6.7876 6.32687 6.00692 6.32687C5.22624 6.32687 4.4727 6.61337 3.88922 7.13204C3.83992 7.1747 3.79958 7.22673 3.77056 7.28512C3.74153 7.3435 3.72439 7.40707 3.72014 7.47213C3.71589 7.53719 3.7246 7.60244 3.74578 7.66411C3.76696 7.72577 3.80018 7.78261 3.84351 7.83133C3.88684 7.88005 3.93942 7.91967 3.99819 7.9479C4.05697 7.97613 4.12076 7.99239 4.18587 7.99576C4.25099 7.99913 4.31612 7.98952 4.37749 7.96751C4.43886 7.94549 4.49524 7.9115 4.54336 7.86751C4.94663 7.5091 5.4674 7.31113 6.00692 7.31113C6.54644 7.31113 7.0672 7.5091 7.47047 7.86751C7.56806 7.95425 7.69612 7.99867 7.82646 7.991C7.95681 7.98334 8.07877 7.9242 8.16551 7.82661C8.25225 7.72902 8.29668 7.60096 8.28901 7.47062C8.28134 7.34027 8.2222 7.21831 8.12461 7.13157V7.13204Z" fill="white"/>
<path d="M6.00656 4.30546C4.68509 4.30363 3.41269 4.80589 2.44875 5.70983C2.39994 5.75355 2.36036 5.80657 2.33232 5.86579C2.30427 5.925 2.28834 5.98923 2.28544 6.05468C2.28254 6.12014 2.29274 6.18552 2.31545 6.24698C2.33815 6.30844 2.3729 6.36476 2.41765 6.41261C2.4624 6.46047 2.51626 6.49891 2.57606 6.52568C2.63587 6.55245 2.70041 6.56701 2.76592 6.5685C2.83142 6.57 2.89657 6.5584 2.95753 6.53438C3.01849 6.51037 3.07405 6.47443 3.12094 6.42866C3.90362 5.69691 4.93509 5.28984 6.00656 5.28984C7.07804 5.28984 8.1095 5.69691 8.89219 6.42866C8.93907 6.47443 8.99463 6.51037 9.05559 6.53438C9.11656 6.5584 9.1817 6.57 9.2472 6.5685C9.31271 6.56701 9.37726 6.55245 9.43706 6.52568C9.49686 6.49891 9.55072 6.46047 9.59547 6.41261C9.64023 6.36476 9.67497 6.30844 9.69768 6.24698C9.72038 6.18552 9.73058 6.12014 9.72768 6.05468C9.72479 5.98923 9.70885 5.925 9.68081 5.86579C9.65276 5.80657 9.61318 5.75355 9.56437 5.70983C8.60044 4.80589 7.32803 4.30363 6.00656 4.30546Z" fill="white"/>
<path d="M10.8281 4.12173C9.50116 2.93776 7.78494 2.28342 6.00656 2.28342C4.22818 2.28342 2.51197 2.93776 1.185 4.12173C1.13513 4.16433 1.09427 4.21647 1.06484 4.27509C1.0354 4.3337 1.01798 4.3976 1.01359 4.46305C1.0092 4.52849 1.01794 4.59415 1.03929 4.65617C1.06063 4.71818 1.09416 4.77531 1.1379 4.82419C1.18164 4.87306 1.2347 4.9127 1.29398 4.94078C1.35325 4.96886 1.41754 4.98481 1.48307 4.98769C1.5486 4.99057 1.61404 4.98032 1.67555 4.95755C1.73706 4.93478 1.79339 4.89995 1.84125 4.85509C2.98773 3.8326 4.47025 3.26754 6.00644 3.26754C7.54264 3.26754 9.02516 3.8326 10.1716 4.85509C10.269 4.94212 10.3968 4.98692 10.5272 4.97965C10.6575 4.97237 10.7797 4.91362 10.8667 4.8163C10.9537 4.71899 10.9985 4.5911 10.9912 4.46075C10.984 4.33041 10.9252 4.20829 10.8279 4.12127L10.8281 4.12173Z" fill="white"/>
<path d="M6.00656 9.97055C6.42077 9.97055 6.75656 9.63476 6.75656 9.22055C6.75656 8.80634 6.42077 8.47055 6.00656 8.47055C5.59235 8.47055 5.25656 8.80634 5.25656 9.22055C5.25656 9.63476 5.59235 9.97055 6.00656 9.97055Z" fill="white"/>
</svg>
