<svg width="23" height="22" viewBox="0 0 23 22" fill="none" xmlns="http://www.w3.org/2000/svg">
<path d="M11.2224 4.03046L10.2392 2.94953C7.93148 0.412203 3.69989 1.2878 2.17234 4.47779C1.45519 5.97819 1.29339 8.14445 2.60291 10.9091C3.86443 13.5711 6.48895 16.7596 11.2224 20.2327C15.9559 16.7596 18.579 13.5711 19.8419 10.9091C21.1514 8.14298 20.991 5.97819 20.2725 4.47779C18.7449 1.2878 14.5133 0.410737 12.2056 2.94806L11.2224 4.03046ZM11.2224 22C-9.80254 7.13978 4.74887 -4.45858 10.9811 1.67647C11.0633 1.75713 11.1443 1.84073 11.2224 1.92726C11.2998 1.84081 11.3803 1.75764 11.4637 1.67793C17.6946 -4.46151 32.2474 7.13831 11.2224 22Z" fill="white"/>
</svg>
