<svg width="13" height="12" viewBox="0 0 13 12" fill="none" xmlns="http://www.w3.org/2000/svg">
<path d="M4.49536 11.9993L3.37102 10.1703L1.23274 9.72506L1.4428 7.59506L0 6L1.44347 4.40494L1.23274 2.27559L3.37169 1.83035L4.49536 0.000649937L6.49966 0.817679L8.50396 0L9.62831 1.83035L11.7666 2.27494L11.5565 4.40494L13 6L11.5579 7.59506L11.7673 9.72506L9.62831 10.1696L8.50463 12L6.49966 11.1823L4.49536 11.9993ZM5.79274 7.85765L9.13077 4.63503L8.6541 4.16705L5.79274 6.92948L4.34523 5.53981L3.86856 6L5.79274 7.85765Z" fill="#0594F2"/>
<path d="M4.49536 11.9993L3.37102 10.1703L1.23274 9.72506L1.4428 7.59506L0 6L1.44347 4.40494L1.23274 2.27559L3.37169 1.83035L4.49536 0.000649937L6.49966 0.817679L8.50396 0L9.62831 1.83035L11.7666 2.27494L11.5565 4.40494L13 6L11.5579 7.59506L11.7673 9.72506L9.62831 10.1696L8.50463 12L6.49966 11.1823L4.49536 11.9993ZM5.79274 7.85765L9.13077 4.63503L8.6541 4.16705L5.79274 6.92948L4.34523 5.53981L3.86856 6L5.79274 7.85765Z" fill="black" fill-opacity="0.2"/>
</svg>
