<svg width="107" height="30" viewBox="0 0 107 30" fill="none" xmlns="http://www.w3.org/2000/svg">
<path d="M6.39121 0.10427C4.23203 1.00788 1.84918 3.57243 1.10077 6.78241C0.145915 10.853 4.11159 12.5741 4.42988 12.0062C4.80838 11.3435 3.71589 11.1198 3.49222 9.00272C3.20835 6.28327 4.48149 3.2368 6.07293 1.90289C6.36541 1.65332 6.3568 1.99756 6.3568 2.643C6.3568 3.78757 6.29659 14.0544 6.29659 16.1972C6.29659 19.0974 6.17616 20.0096 5.9611 20.9218C5.74604 21.8426 5.39334 22.4623 5.66001 22.6946C5.95249 22.9614 7.22564 22.3246 7.95684 21.3005C8.83428 20.0698 9.14396 18.5982 9.19558 16.9976C9.26439 15.0698 9.25579 12.0062 9.26439 10.2592C9.26439 8.65849 9.2902 3.9683 9.23859 1.14558C9.22138 0.448504 7.30306 -0.274387 6.39121 0.10427ZM83.2187 13.6757C83.1499 15.1817 82.8144 16.3607 82.4015 17.1955C81.6015 18.8048 79.9326 19.3039 79.2272 16.989C78.8401 15.7325 78.8229 13.6241 79.0982 11.8599C79.3821 10.0698 80.1649 8.71012 81.4724 8.83921C82.7628 8.95969 83.3563 10.612 83.2187 13.6757ZM61.5666 23.0303C61.5494 25.5346 61.1537 27.7291 60.3107 28.3659C59.115 29.2695 57.4977 28.5896 57.8332 26.7652C58.1257 25.1473 59.5279 23.495 61.5666 21.4812C61.5666 21.4812 61.5752 21.9373 61.5666 23.0303ZM61.2397 13.6671C61.1709 15.044 60.8096 16.421 60.4225 17.1955C59.6225 18.8048 57.945 19.3039 57.2482 16.989C56.7751 15.4055 56.887 13.3573 57.1192 12.0664C57.4203 10.3883 58.1601 8.83921 59.4935 8.83921C60.7838 8.83921 61.4204 10.2592 61.2397 13.6671ZM48.6975 13.6413C48.6201 15.0957 48.3362 16.3091 47.8803 17.1955C47.0545 18.7962 45.4286 19.3039 44.706 16.989C44.1899 15.328 44.3619 13.0561 44.577 11.8254C44.8953 10.001 45.6953 8.71873 46.9513 8.83921C48.233 8.9683 48.861 10.612 48.6975 13.6413ZM106.178 15.3366C105.86 15.3366 105.722 15.6636 105.602 16.2058C105.189 18.0991 104.759 18.5294 104.2 18.5294C103.58 18.5294 103.021 17.5914 102.875 15.7153C102.763 14.2351 102.78 11.5242 102.927 8.81339C102.952 8.25401 102.806 7.71184 101.309 7.16967C100.664 6.93732 99.7352 6.59308 99.2707 7.71184C97.9631 10.8788 97.447 13.3917 97.3265 14.4072C97.3179 14.4588 97.2577 14.4674 97.2405 14.347C97.1631 13.5294 96.9911 12.0406 96.9739 8.92527C96.9739 8.31425 96.8448 7.7979 96.1652 7.37621C95.7265 7.10083 94.4104 6.61029 93.9286 7.19549C93.5157 7.66881 93.034 8.94248 92.5436 10.4571C92.1393 11.6877 91.8555 12.5139 91.8555 12.5139C91.8555 12.5139 91.8641 9.20065 91.8641 7.9442C91.8641 7.47088 91.5372 7.31597 91.4426 7.28155C91.0038 7.15246 90.135 6.93732 89.7651 6.93732C89.3092 6.93732 89.1973 7.19549 89.1973 7.56554C89.1973 7.61718 89.1285 11.9287 89.1285 14.9494C89.1285 15.0785 89.1285 15.2248 89.1285 15.3797C88.8791 16.7652 88.0618 18.6499 87.1672 18.6499C86.2811 18.6499 85.8596 17.8581 85.8596 14.2695C85.8596 12.1697 85.9198 11.2575 85.9543 9.74282C85.9715 8.86503 86.0059 8.19377 86.0059 8.04747C85.9973 7.58276 85.1886 7.34179 84.8187 7.25573C84.4402 7.16967 84.1134 7.13525 83.8553 7.15246C83.494 7.16967 83.2359 7.41064 83.2359 7.73766C83.2359 7.90978 83.2359 8.24541 83.2359 8.24541C82.7714 7.51391 82.0144 6.99756 81.5154 6.85126C80.1735 6.44678 78.7627 6.80823 77.7046 8.28843C76.8616 9.46744 76.354 10.8013 76.1562 12.7204C76.0099 14.1232 76.0616 15.5432 76.3196 16.748C76.0099 18.1077 75.425 18.6585 74.7884 18.6585C73.8594 18.6585 73.1884 17.1439 73.2658 14.5363C73.3174 12.8151 73.6615 11.6103 74.04 9.86331C74.2035 9.1232 74.0658 8.72733 73.7475 8.35728C73.4465 8.01305 72.8099 7.84093 71.8894 8.05608C71.2356 8.21098 70.298 8.37449 69.4464 8.50358C69.4464 8.50358 69.498 8.29704 69.541 7.9356C69.7647 6.0337 67.6915 6.18861 67.0377 6.79102C66.642 7.15246 66.3753 7.58275 66.2721 8.34868C66.1087 9.57071 67.1065 10.1473 67.1065 10.1473C66.7796 11.6447 65.9796 13.5982 65.1538 15.0096C64.7151 15.7669 64.371 16.3263 63.9323 16.9287C63.9323 16.705 63.9323 16.4812 63.9323 16.2661C63.9237 13.1163 63.9667 10.6464 63.9839 9.75143C64.0011 8.87363 64.0355 8.21959 64.0355 8.07329C64.0269 7.72905 63.829 7.59997 63.4161 7.43646C63.0462 7.29016 62.6161 7.19549 62.1688 7.16107C61.601 7.09222 61.2569 7.39343 61.2655 7.74627C61.2655 7.81511 61.2655 8.22819 61.2655 8.22819C60.801 7.4967 60.044 6.98035 59.5451 6.83405C58.2031 6.43818 56.7923 6.79102 55.7342 8.27122C54.8912 9.45022 54.3407 11.1025 54.1858 12.686C54.0396 14.1662 54.0654 15.4141 54.2632 16.4726C54.0482 17.5311 53.4374 18.6413 52.7406 18.6413C51.8546 18.6413 51.347 17.8495 51.347 14.2609C51.347 12.1611 51.4073 11.2488 51.4417 9.73422C51.4589 8.85642 51.4933 8.18516 51.4933 8.03887C51.4847 7.57415 50.6761 7.33319 50.3062 7.24713C49.9105 7.15246 49.575 7.12665 49.3169 7.14386C48.9728 7.16967 48.7319 7.47948 48.7319 7.70324V8.2368C48.2674 7.5053 47.5104 6.98895 47.0115 6.84265C45.6695 6.44678 44.2673 6.79962 43.2006 8.27983C42.5038 9.24368 41.9447 10.3108 41.6522 12.6774C41.5662 13.3573 41.5318 14.0027 41.5404 14.5965C41.2651 16.2919 40.035 18.254 39.0371 18.254C38.4521 18.254 37.893 17.118 37.893 14.6912C37.893 11.4554 38.0908 6.85986 38.1252 6.41236C38.1252 6.41236 39.3898 6.39515 39.6393 6.38654C40.2672 6.37794 40.8436 6.39515 41.6866 6.35212C42.1081 6.33491 42.5124 4.81167 42.0823 4.63095C41.8845 4.54489 40.4909 4.46744 39.9317 4.45883C39.4672 4.45023 38.1683 4.35556 38.1683 4.35556C38.1683 4.35556 38.2887 1.30048 38.3145 0.982067C38.3403 0.715285 37.9876 0.577592 37.7898 0.491533C37.308 0.284993 36.8693 0.190329 36.3532 0.0784525C35.6392 -0.0678469 35.3209 0.0784525 35.2607 0.672256C35.166 1.58448 35.1144 4.25229 35.1144 4.25229C34.5897 4.25229 32.809 4.14902 32.2929 4.14902C31.8111 4.14902 31.2864 6.23164 31.9574 6.25745C32.7316 6.28327 34.0735 6.30909 34.9596 6.34351C34.9596 6.34351 34.9166 11.0251 34.9166 12.4623C34.9166 12.6172 34.9166 12.7635 34.9166 12.9098C34.4262 15.4657 32.6972 16.8427 32.6972 16.8427C33.0671 15.1559 32.3101 13.8822 30.9423 12.8065C30.4434 12.4106 29.4455 11.6619 28.3358 10.8358C28.3358 10.8358 28.981 10.1989 29.5487 8.92527C29.953 8.02165 29.9702 6.98895 28.981 6.75659C27.3465 6.37794 25.9873 7.58276 25.5916 8.86503C25.282 9.86331 25.4454 10.6034 26.0562 11.3693C26.0992 11.421 26.1508 11.4812 26.2024 11.5414C25.8325 12.2557 25.325 13.211 24.8948 13.9597C23.6991 16.0251 22.7959 17.6602 22.1163 17.6602C21.5743 17.6602 21.5743 15.9993 21.5743 14.4416C21.5743 13.0991 21.669 11.0853 21.755 9.00272C21.7808 8.31425 21.4367 7.91838 20.8603 7.56554C20.5077 7.3504 19.7593 6.9201 19.3291 6.9201C18.6754 6.9201 16.8086 7.00616 15.0366 12.1353C14.8129 12.7807 14.3742 13.9597 14.3742 13.9597L14.4086 7.7979C14.4086 7.6516 14.3312 7.51391 14.1591 7.41924C13.858 7.25573 13.0666 6.92871 12.3526 6.92871C12.0171 6.92871 11.8451 7.08362 11.8451 7.40203L11.7677 17.0406C11.7677 17.7721 11.7849 18.6241 11.8623 19.0027C11.9311 19.3728 12.0516 19.6826 12.1978 19.8633C12.344 20.044 12.5075 20.1817 12.7828 20.242C13.0408 20.2936 14.443 20.4743 14.5204 19.9408C14.6064 19.2953 14.6151 18.5982 15.3462 15.9993C16.4904 11.9545 17.9958 9.98379 18.6926 9.28671C18.813 9.16623 18.9592 9.15763 18.9506 9.35556C18.9162 10.242 18.813 12.4537 18.7442 14.3383C18.5549 19.3728 19.4668 20.3108 20.7743 20.3108C21.7722 20.3108 23.183 19.3125 24.697 16.7996C25.6433 15.2334 26.5551 13.6929 27.2175 12.5828C27.6734 13.0044 28.1895 13.4606 28.7057 13.9511C29.9014 15.0871 30.2971 16.1628 30.0304 17.1869C29.8326 17.97 29.0842 18.7704 27.7508 17.9872C27.3637 17.7549 27.1917 17.5828 26.8046 17.3246C26.5981 17.1869 26.2712 17.1439 26.082 17.2902C25.583 17.6688 25.2992 18.1507 25.1357 18.7359C24.9809 19.3125 25.5572 19.6223 26.1508 19.8891C26.6669 20.1215 27.7766 20.328 28.482 20.3538C31.2348 20.4485 33.4456 19.0199 34.9854 15.3538C35.2607 18.5208 36.4306 20.3194 38.4693 20.3194C39.8285 20.3194 41.1963 18.5638 41.7898 16.834C41.9619 17.5397 42.2114 18.1507 42.5382 18.6671C44.1039 21.1542 47.1491 20.6206 48.6717 18.5036C49.1448 17.8495 49.2137 17.6172 49.2137 17.6172C49.4373 19.6051 51.0374 20.3022 51.9578 20.3022C52.9901 20.3022 54.0482 19.8203 54.788 18.1421C54.874 18.3229 54.9686 18.495 55.0719 18.6585C56.6375 21.1456 59.6827 20.6034 61.2053 18.495C61.2741 18.4003 61.343 18.3056 61.3946 18.2282L61.4376 19.5363C61.4376 19.5363 60.5688 20.3366 60.0354 20.8272C57.6784 22.9872 55.8891 24.6309 55.76 26.5328C55.588 28.9683 57.5665 29.8719 59.0547 29.9924C60.6376 30.1215 61.9967 29.2437 62.8312 28.013C63.5624 26.9373 64.0441 24.6137 64.0097 22.316C63.9925 21.3951 63.9753 20.2334 63.9581 18.9769C64.7839 18.013 65.713 16.7996 66.5732 15.3797C67.5108 13.8306 68.5087 11.748 69.0248 10.1301C69.0248 10.1301 69.8937 10.1387 70.8227 10.0785C71.1238 10.0612 71.2098 10.1215 71.1496 10.3366C71.0808 10.6034 69.9797 14.8719 70.9862 17.7204C71.6744 19.6654 73.24 20.2936 74.1604 20.2936C75.2443 20.2936 76.2766 19.476 76.8358 18.2626C76.9046 18.4003 76.9734 18.5294 77.0508 18.6499C78.6165 21.137 81.6445 20.5948 83.1843 18.4864C83.5284 18.013 83.7262 17.6 83.7262 17.6C84.0531 19.6654 85.6618 20.3022 86.5736 20.3022C87.5285 20.3022 88.4403 19.9063 89.1715 18.168C89.2059 18.9339 89.249 19.5621 89.3264 19.76C89.3694 19.8805 89.6447 20.0354 89.8425 20.1043C90.72 20.4313 91.606 20.2764 91.9415 20.2075C92.1737 20.1645 92.3458 19.9752 92.3716 19.5019C92.4318 18.254 92.3974 16.1628 92.7759 14.6137C93.4125 12.0062 93.9974 10.9907 94.2813 10.4915C94.4362 10.2075 94.6168 10.1645 94.6254 10.4571C94.6426 11.0595 94.6684 12.8237 94.9093 15.1903C95.0899 16.9373 95.3308 17.9614 95.5115 18.2884C96.0362 19.2179 96.69 19.2609 97.2233 19.2609C97.5588 19.2609 98.2642 19.1662 98.204 18.5724C98.1696 18.2798 98.2298 16.4984 98.8492 13.9253C99.2535 12.2471 99.9331 10.7325 100.183 10.1817C100.277 9.97518 100.312 10.1387 100.312 10.1731C100.26 11.3263 100.148 15.1043 100.613 17.1697C101.249 19.9666 103.099 20.285 103.735 20.285C105.103 20.285 106.23 19.2437 106.608 16.4898C106.72 15.853 106.583 15.3366 106.178 15.3366Z" fill="white"/>
</svg>
